<?xml version="1.0" standalone="no"?>
<!DOCTYPE svg PUBLIC "-//W3C//DTD SVG 20010904//EN"
 "http://www.w3.org/TR/2001/REC-SVG-20010904/DTD/svg10.dtd">
<svg version="1.0" xmlns="http://www.w3.org/2000/svg"
 width="1203.000000pt" height="1203.000000pt" viewBox="0 0 1203.000000 1203.000000"
 preserveAspectRatio="xMidYMid meet">

<g transform="translate(0.000000,1203.000000) scale(0.100000,-0.100000)"
fill="#000000" stroke="none">
<path d="M5660 12019 c-684 -42 -1323 -191 -1975 -459 -185 -77 -573 -273
-756 -383 -901 -543 -1620 -1278 -2144 -2192 -101 -176 -273 -534 -353 -735
-474 -1190 -558 -2475 -245 -3715 56 -225 155 -527 245 -755 89 -225 300 -651
422 -853 761 -1261 1924 -2184 3316 -2635 1825 -591 3821 -271 5385 861 495
359 963 827 1322 1322 516 712 875 1539 1042 2395 77 397 106 714 105 1160 0
369 -12 542 -60 863 -161 1088 -625 2126 -1324 2967 -729 875 -1692 1526
-2780 1878 -702 227 -1477 326 -2200 281z m780 -304 c182 -15 375 -38 470 -54
226 -39 324 -59 465 -96 55 -15 132 -35 170 -45 418 -108 972 -347 1405 -607
699 -419 1328 -1017 1787 -1699 300 -446 513 -882 683 -1394 202 -611 290
-1155 290 -1799 0 -718 -105 -1303 -361 -2008 -426 -1172 -1297 -2221 -2399
-2888 -664 -402 -1486 -685 -2250 -774 -52 -6 -131 -16 -175 -22 -129 -16
-709 -23 -895 -10 -1221 83 -2369 544 -3305 1326 -382 319 -816 802 -1069
1190 -112 172 -124 191 -205 330 -292 500 -510 1071 -641 1674 -147 678 -160
1469 -36 2171 181 1031 640 1987 1330 2775 120 137 405 421 545 543 800 700
1796 1165 2861 1336 383 62 947 83 1330 51z"/>
<path d="M5640 11574 c-808 -67 -1465 -246 -2135 -582 -553 -276 -980 -586
-1436 -1041 -387 -388 -654 -734 -906 -1181 -381 -674 -610 -1389 -700 -2185
-26 -230 -26 -901 0 -1125 34 -294 81 -563 137 -780 16 -63 32 -126 36 -140 3
-14 26 -90 51 -170 130 -423 313 -830 562 -1249 334 -563 867 -1147 1426
-1564 767 -573 1701 -947 2645 -1061 431 -52 958 -52 1365 0 1419 181 2709
889 3607 1979 518 628 896 1373 1096 2155 124 483 174 882 174 1390 0 624 -87
1165 -282 1750 -245 737 -601 1359 -1106 1930 -125 142 -416 431 -544 540
-637 544 -1362 928 -2170 1148 -291 80 -544 127 -895 168 -132 15 -801 28
-925 18z m905 -254 c542 -56 1031 -182 1535 -393 1056 -443 1948 -1228 2532
-2227 512 -878 765 -1902 718 -2915 -6 -126 -15 -261 -20 -300 -5 -38 -12 -97
-15 -130 -26 -249 -115 -659 -206 -945 -220 -685 -539 -1266 -1003 -1825 -118
-141 -468 -495 -611 -616 -348 -295 -688 -521 -1075 -715 -696 -348 -1406
-532 -2181 -564 -232 -10 -584 0 -749 20 -47 6 -123 15 -170 21 -566 70 -1176
260 -1715 534 -1002 509 -1830 1335 -2329 2324 -257 508 -426 1024 -515 1571
-89 545 -91 1144 -5 1685 119 754 409 1499 827 2125 291 435 655 839 1049
1162 526 433 1102 747 1763 962 406 132 852 216 1310 246 199 14 637 3 860
-20z"/>
<path d="M5635 11204 c-11 -2 -90 -10 -175 -19 -657 -68 -1286 -257 -1870
-562 -264 -138 -438 -248 -695 -439 -215 -160 -326 -256 -529 -454 -555 -544
-956 -1158 -1225 -1872 -81 -215 -169 -505 -201 -658 -5 -25 -19 -87 -30 -138
-16 -79 -48 -265 -65 -392 -37 -263 -47 -828 -20 -1107 42 -442 111 -777 240
-1168 59 -179 92 -265 183 -480 42 -100 200 -410 264 -520 509 -865 1239
-1555 2123 -2005 600 -306 1188 -478 1885 -552 197 -21 814 -18 1015 5 960
110 1832 449 2567 999 1081 807 1802 1984 2027 3308 105 616 94 1291 -31 1895
-48 235 -47 223 -32 242 7 10 14 33 14 52 0 45 -7 38 -117 -106 -82 -107 -167
-217 -196 -253 -30 -37 -57 -79 -57 -89 0 -7 42 -11 130 -11 162 0 157 5 136
-152 -9 -61 -21 -117 -27 -124 -9 -11 -76 -14 -351 -14 l-339 0 -19 43 c-35
79 -34 90 3 138 18 24 106 138 195 253 89 116 159 212 156 215 -5 5 -62 8
-191 10 -64 1 -72 3 -79 23 -11 37 -20 2 -44 -172 -26 -197 -35 -240 -67 -303
-73 -146 -270 -238 -451 -210 -187 29 -293 150 -280 317 13 153 83 609 96 622
16 17 242 20 273 4 26 -14 25 -22 -21 -345 l-40 -280 21 -17 c42 -35 112 -15
128 36 5 17 26 153 47 301 20 149 43 280 51 293 13 21 20 22 134 22 66 0 129
-5 140 -10 13 -8 19 -22 20 -48 l1 -37 9 40 c5 21 15 43 22 47 6 4 146 8 311
8 l298 0 -7 28 c-4 15 -35 106 -69 202 -343 960 -952 1787 -1766 2402 -579
437 -1287 764 -1990 918 -399 88 -716 120 -1159 119 -179 -1 -335 -3 -346 -5z
m-4023 -3674 c87 -25 198 -133 184 -178 -7 -20 -174 -142 -195 -142 -5 0 -32
14 -59 31 -39 24 -58 30 -93 27 -57 -4 -59 -27 -4 -43 165 -50 184 -57 223
-91 49 -41 70 -78 87 -149 l12 -50 146 296 c82 168 152 299 162 303 32 12 232
7 243 -6 13 -16 47 -167 148 -643 14 -66 29 -127 34 -135 11 -19 10 -21 69
408 27 194 54 359 61 367 10 12 39 15 134 15 172 0 165 9 143 -172 -45 -356
-104 -748 -116 -762 -11 -13 -52 -15 -292 -15 -277 -1 -279 0 -293 22 -8 12
-17 44 -21 71 -11 78 -9 76 -94 76 l-77 0 -40 -82 -39 -83 -139 -3 c-148 -3
-166 2 -166 44 l0 23 -66 -31 c-120 -56 -274 -61 -380 -12 -97 44 -174 120
-174 170 0 14 28 44 87 92 98 82 123 89 168 43 43 -46 160 -61 172 -24 4 11
-54 33 -84 33 -35 0 -128 46 -171 85 -69 62 -95 126 -90 219 8 154 115 271
280 306 52 11 189 5 240 -10z m2649 -10 c63 -23 141 -86 166 -134 9 -17 22
-56 28 -86 l12 -55 13 40 c53 163 247 276 450 262 95 -6 175 -37 234 -89 98
-86 111 -157 72 -418 -21 -140 -32 -187 -56 -236 -73 -149 -252 -237 -448
-219 -159 13 -286 104 -307 219 -10 50 -22 53 -40 9 -15 -35 -15 -40 3 -73 10
-19 17 -42 15 -51 -7 -27 -153 -149 -180 -149 -6 0 -27 16 -45 36 -32 33 -36
34 -63 23 -18 -8 -75 -13 -140 -12 -91 0 -121 4 -170 23 -77 30 -158 108 -176
171 -18 64 -25 66 -47 18 -41 -92 -155 -174 -277 -198 -38 -8 -130 -11 -254
-9 -169 3 -195 5 -204 20 -14 21 105 891 124 914 19 23 433 15 497 -9 96 -37
162 -107 185 -197 l14 -52 27 55 c47 97 159 180 284 212 77 20 210 13 283 -15z
m4214 5 c109 -38 185 -115 206 -211 11 -48 9 -77 -14 -237 -14 -101 -33 -205
-43 -232 -39 -117 -131 -200 -269 -243 -68 -22 -243 -21 -305 2 -58 22 -136
74 -151 103 -22 40 -28 25 -11 -28 26 -80 20 -83 -139 -87 -74 -1 -144 0 -155
3 -16 3 -30 26 -54 87 -17 46 -36 93 -41 106 -5 12 -12 22 -16 22 -5 0 -30
-37 -57 -81 -26 -44 -59 -93 -73 -110 l-25 -29 -256 0 c-142 0 -262 4 -268 8
-11 7 -130 185 -137 206 -9 23 -18 -4 -31 -92 -7 -51 -19 -99 -26 -107 -10
-12 -38 -15 -141 -15 -174 0 -166 -16 -128 250 15 113 42 306 60 430 17 126
37 235 45 248 14 22 18 22 214 22 109 0 223 -5 252 -11 101 -21 179 -84 213
-173 27 -69 18 -213 -17 -286 -30 -63 -48 -84 -100 -124 -21 -16 -38 -33 -38
-38 0 -13 99 -158 108 -158 8 0 208 287 217 312 6 15 -5 44 -114 307 -49 117
-51 125 -36 147 15 23 19 24 158 24 78 0 147 -4 154 -8 6 -4 28 -51 47 -105
20 -54 38 -103 42 -108 3 -5 37 39 76 98 39 59 76 111 82 115 17 12 275 9 297
-2 21 -12 25 -41 9 -71 -11 -19 3 -29 14 -10 13 21 101 63 169 82 86 23 205
20 282 -6z m-2634 -13 c72 -29 131 -80 160 -140 19 -37 23 -62 22 -122 -1 -67
-35 -335 -49 -385 -25 -90 -102 -181 -188 -224 -89 -44 -138 -51 -353 -51
-170 0 -204 2 -217 16 -9 8 -16 19 -16 23 0 4 27 200 60 434 33 235 60 431 60
436 0 5 7 17 17 26 14 15 41 16 232 13 194 -4 222 -6 272 -26z m544 12 c18
-19 18 -16 -15 -254 -11 -74 -36 -252 -55 -395 -20 -143 -41 -265 -47 -272 -7
-9 -47 -13 -139 -13 -122 0 -129 1 -143 23 -13 20 -8 68 45 442 32 231 59 428
59 437 0 40 26 48 155 48 101 0 127 -3 140 -16z m2634 6 c10 -5 46 -75 81
-160 35 -83 65 -148 68 -145 5 5 41 234 42 267 1 40 26 48 155 48 99 0 127 -3
139 -16 9 -8 16 -19 16 -24 0 -9 -47 -350 -96 -690 -13 -96 -27 -183 -30 -192
-8 -25 -33 -29 -168 -26 l-119 3 -16 30 c-9 17 -36 77 -61 135 -24 58 -47 109
-50 113 -7 7 -20 -62 -36 -188 -12 -93 -15 -95 -163 -95 -105 0 -131 3 -142
16 -14 17 -14 21 67 593 24 173 49 320 55 328 14 16 229 19 258 3z m-5119
-2273 c0 -12 -9 -69 -20 -126 -11 -58 -19 -106 -17 -107 1 -2 30 11 63 27 102
51 225 39 298 -29 72 -68 86 -178 36 -280 -58 -115 -168 -185 -296 -186 -64 0
-77 3 -123 32 l-52 32 -6 -30 c-5 -30 -6 -30 -74 -30 -38 0 -69 3 -69 8 0 4
27 162 60 351 33 189 60 348 60 352 0 5 32 9 70 9 66 0 70 -1 70 -23z m3687
-4 c-2 -16 -27 -154 -56 -308 -28 -154 -54 -302 -58 -330 l-8 -50 -74 -3 -73
-3 6 28 c3 15 31 172 61 348 31 176 58 326 60 333 3 8 28 12 76 12 l71 0 -5
-27z m-5312 -5 c3 -13 28 -124 55 -247 28 -124 52 -226 54 -229 2 -2 23 29 46
70 24 40 50 86 60 101 16 27 15 33 -17 170 -18 78 -33 145 -33 150 0 4 36 7
79 7 l80 0 6 -55 c4 -30 10 -55 14 -55 4 0 19 25 34 55 l27 55 81 0 81 0 -14
-22 c-60 -93 -158 -269 -158 -284 0 -28 32 -178 40 -187 4 -5 72 104 151 242
l144 251 83 0 83 0 -26 -42 c-14 -24 -108 -184 -208 -355 l-182 -313 -77 0
c-75 0 -76 0 -82 28 -3 15 -13 66 -22 114 -9 48 -20 85 -25 82 -4 -2 -34 -54
-65 -114 l-57 -110 -79 0 c-43 0 -78 2 -78 4 0 5 -144 633 -156 680 l-6 26 81
0 c75 0 81 -1 86 -22z m3022 7 c73 -22 143 -72 178 -129 28 -47 30 -56 30
-150 0 -94 -2 -106 -33 -168 -57 -116 -174 -208 -302 -237 -62 -15 -410 -14
-410 0 0 11 105 619 116 672 l6 27 182 0 c133 0 196 -4 233 -15z m-1821 -191
c82 -34 133 -111 134 -199 0 -102 17 -95 -221 -95 -139 0 -209 -4 -209 -10 0
-21 48 -59 89 -71 43 -13 88 -7 158 22 27 11 37 10 75 -6 24 -10 48 -23 53
-28 15 -14 -60 -74 -124 -98 -70 -27 -197 -30 -252 -7 -84 37 -149 127 -149
209 0 87 75 202 168 257 82 47 200 59 278 26z m2509 1 c80 -32 136 -113 138
-199 1 -102 16 -96 -223 -96 l-210 0 12 -25 c13 -29 82 -65 124 -65 16 1 47 8
69 16 22 8 48 18 57 21 20 6 128 -35 128 -48 0 -15 -80 -68 -139 -90 -111 -44
-256 -24 -329 44 -70 65 -85 174 -38 271 71 146 270 228 411 171z m1172 -1
c95 -34 160 -155 134 -252 l-12 -42 -211 0 -210 0 14 -22 c8 -12 27 -31 42
-42 35 -26 126 -28 175 -3 19 9 40 17 46 17 20 0 115 -42 115 -51 0 -4 -15
-19 -32 -32 -128 -96 -292 -110 -405 -34 -190 128 -82 417 177 473 61 14 104
10 167 -12z m823 4 c168 -61 195 -271 53 -412 -114 -114 -306 -134 -409 -43
-101 88 -100 236 0 354 82 95 245 141 356 101z m1318 -15 c96 -45 138 -138
116 -252 l-6 -31 -209 0 c-143 0 -209 -3 -209 -11 0 -6 13 -23 28 -39 41 -41
97 -47 181 -20 l68 22 52 -23 c28 -12 50 -27 48 -33 -8 -23 -91 -77 -145 -93
-155 -46 -296 -4 -355 106 -83 151 41 354 243 397 69 15 121 9 188 -23z m619
16 c25 -9 25 -8 -16 -101 -23 -53 -26 -55 -53 -31 -25 23 -97 21 -138 -3 -57
-33 -68 -59 -95 -218 -14 -82 -25 -151 -25 -153 0 -2 -31 -3 -70 -3 -66 0 -70
1 -70 23 0 41 79 480 88 489 5 5 38 8 73 6 60 -3 64 -5 62 -25 -3 -28 -3 -28
43 -1 59 35 135 41 201 17z m-3557 -173 l36 -179 100 179 99 179 73 3 c49 2
72 -1 72 -9 0 -6 -64 -123 -142 -260 l-143 -249 -85 3 -84 2 -57 250 c-31 138
-54 254 -52 258 3 4 37 7 76 5 l71 -3 36 -179z m2020 154 l0 -29 52 27 c42 22
68 28 133 30 72 2 85 0 130 -25 129 -72 146 -238 40 -377 -58 -76 -200 -135
-288 -121 -45 8 -91 28 -120 53 -9 8 -19 13 -21 11 -3 -2 -13 -60 -23 -129
l-19 -125 -72 -3 c-55 -2 -72 0 -72 10 0 8 15 101 34 208 19 107 44 254 56
325 30 182 26 175 105 175 l65 0 0 -30z m-3625 -152 c-13 -85 8 -78 -227 -78
l-210 0 7 53 c4 28 9 55 12 60 2 4 99 7 214 7 l211 0 -7 -42z m-1546 -1543
c32 -85 32 -85 -50 -85 -79 0 -76 -8 -41 93 14 41 20 47 43 47 24 0 30 -7 48
-55z m-139 37 c0 -22 -32 -112 -40 -112 -24 0 -110 24 -110 31 0 10 80 66 112
79 30 11 38 12 38 2z m227 -7 c41 -17 103 -62 103 -74 0 -8 -109 -36 -114 -29
-1 1 -8 23 -15 47 -7 23 -15 49 -18 57 -7 18 -1 18 44 -1z m995 -12 c8 -10 22
-39 32 -65 18 -48 47 -75 94 -84 53 -11 65 -28 63 -90 0 -32 -3 -60 -6 -63 -5
-5 -69 11 -142 34 l-23 7 0 -132 c0 -153 -10 -194 -59 -251 -45 -54 -100 -79
-174 -79 -70 0 -115 21 -174 82 -52 54 -73 102 -73 170 1 105 76 194 185 219
49 11 57 10 75 -6 16 -14 20 -31 20 -77 l0 -58 -33 0 c-67 0 -117 -65 -97
-126 24 -71 91 -85 146 -30 l34 34 0 266 0 266 58 0 c44 0 63 -5 74 -17z
m5091 -83 c28 -22 58 -25 89 -9 29 15 31 6 7 -25 -25 -32 -19 -44 16 -28 41
19 41 14 2 -26 -29 -30 -38 -48 -42 -87 -15 -128 -98 -269 -196 -331 -47 -29
-161 -64 -211 -64 -22 0 -67 12 -100 27 l-59 26 49 21 c27 12 57 27 66 35 15
13 14 15 -20 27 -40 14 -94 60 -94 81 0 8 5 11 10 8 6 -4 17 -1 25 5 13 11 10
15 -17 29 -34 17 -62 52 -73 90 -7 21 -5 23 24 16 20 -4 31 -3 31 4 0 6 -3 11
-8 11 -10 0 -52 94 -52 118 0 58 25 67 59 21 13 -17 25 -28 28 -25 3 2 14 -4
25 -14 27 -25 151 -70 193 -70 29 0 34 3 33 23 -4 57 4 78 42 117 36 37 43 40
93 40 39 0 61 -6 80 -20z m-3203 -64 c47 -31 110 -89 110 -101 0 -4 9 -20 20
-35 30 -42 56 -138 54 -200 -3 -78 -11 -110 -44 -179 -75 -154 -249 -241 -411
-207 -37 8 -85 24 -107 35 -59 30 -136 111 -169 178 -26 54 -28 66 -28 178 0
118 1 121 34 183 106 195 366 266 541 148z m2184 20 c55 -32 81 -61 105 -119
54 -127 -4 -308 -118 -367 -36 -18 -114 -17 -145 3 -32 21 -36 21 -36 0 -1
-55 -81 -229 -101 -218 -18 11 -8 150 20 270 22 96 25 128 18 161 -8 34 -6 49
9 80 51 105 145 56 113 -58 -33 -118 -28 -163 18 -175 57 -14 114 51 132 152
26 143 -31 225 -156 225 -78 0 -133 -34 -168 -104 -30 -59 -32 -109 -7 -157
19 -38 12 -89 -12 -89 -19 0 -62 51 -75 89 -31 95 12 223 96 284 86 61 224 72
307 23z m-5404 -2 l72 -17 -6 -30 c-3 -16 -6 -45 -6 -64 l0 -34 -97 3 c-98 3
-98 3 -95 28 3 33 42 130 52 130 4 0 40 -7 80 -16z m508 -27 c11 -24 24 -60
27 -80 l7 -37 -95 0 -94 0 -7 38 c-14 84 -12 88 52 105 85 22 88 22 110 -26z
m-218 -11 c0 -7 3 -34 6 -60 l7 -46 -97 0 -96 0 0 38 c0 80 3 82 96 82 64 0
84 -3 84 -14z m4019 -96 c60 -30 74 -78 70 -232 -3 -98 -8 -130 -22 -151 -25
-39 -75 -67 -119 -67 -43 0 -47 -12 -18 -50 11 -14 20 -31 20 -37 0 -7 5 -13
11 -13 6 0 9 -6 6 -14 -3 -8 -3 -17 1 -20 3 -4 7 -15 9 -26 2 -15 -7 -21 -54
-31 -128 -26 -263 14 -364 108 -46 43 -89 107 -89 132 0 11 48 39 77 44 10 2
30 7 46 12 l27 7 0 114 c0 95 4 122 21 159 35 73 62 85 212 85 108 0 134 -3
166 -20z m-4249 -94 c0 -18 3 -47 6 -62 6 -29 5 -30 -67 -47 -60 -13 -76 -14
-86 -4 -18 17 -55 126 -48 138 4 5 49 9 101 9 l94 0 0 -34z m240 20 c0 -7 -3
-34 -6 -60 l-7 -46 -82 0 -82 0 -7 31 c-3 17 -6 44 -6 60 l0 29 95 0 c73 0 95
-3 95 -14z m240 -1 c0 -16 -35 -112 -48 -133 -7 -10 -23 -9 -80 5 -71 17 -72
17 -72 49 0 17 3 46 6 63 l7 31 93 0 c76 0 94 -3 94 -15z m1518 -39 c26 -14
59 -33 74 -43 l27 -19 -42 -26 c-55 -34 -103 -58 -117 -58 -6 0 -10 32 -10 85
0 52 4 85 10 85 6 0 32 -11 58 -24z m-1788 -131 c0 -8 -9 -39 -21 -70 -19 -51
-23 -56 -47 -53 -23 3 -30 12 -49 63 -12 33 -22 63 -22 68 -1 4 31 7 69 7 55
0 70 -3 70 -15z m-176 -42 c24 -71 23 -76 -21 -58 -44 19 -113 64 -113 75 0 9
63 27 97 29 17 1 24 -9 37 -46z m309 36 c44 -12 46 -21 10 -47 -35 -24 -114
-64 -118 -60 -2 2 4 29 13 61 19 63 25 66 95 46z"/>
<path d="M2004 7049 c-45 -11 -49 -18 -61 -121 -5 -44 -3 -47 25 -62 21 -11
58 -16 117 -16 47 0 85 -4 85 -9 0 -11 93 4 118 20 25 16 34 79 19 136 -10 37
-16 45 -47 53 -59 17 -70 13 -70 -20 l0 -30 -70 0 -69 0 6 30 c3 17 2 30 -3
29 -5 -1 -28 -5 -50 -10z"/>
<path d="M1393 7036 c0 -8 7 -18 14 -20 8 -3 11 -10 8 -16 -3 -5 1 -10 9 -10
9 0 16 -4 16 -10 0 -5 6 -10 14 -10 19 0 56 -47 56 -70 0 -10 -13 -29 -30 -43
-24 -21 -26 -26 -13 -31 9 -4 18 -4 21 -1 3 3 0 5 -7 5 -7 0 -9 5 -6 10 4 6
15 8 26 5 11 -4 19 -2 19 4 0 6 5 10 12 9 22 -5 32 47 18 96 -9 35 -21 51 -49
68 -44 27 -108 35 -108 14z"/>
<path d="M1375 6820 c3 -5 17 -10 31 -10 13 0 24 5 24 10 0 6 -14 10 -31 10
-17 0 -28 -4 -24 -10z"/>
<path d="M1510 6820 c-9 -6 -10 -10 -3 -10 6 0 15 5 18 10 8 12 4 12 -15 0z"/>
<path d="M4025 7253 c-49 -13 -57 -35 -86 -236 -6 -43 -9 -80 -7 -82 2 -2 39
23 83 55 43 33 86 60 95 60 24 0 47 167 26 188 -15 15 -79 24 -111 15z"/>
<path d="M4829 7253 c-46 -7 -56 -31 -78 -175 -28 -184 -28 -184 13 -198 31
-10 53 -8 109 7 9 2 21 12 27 22 8 16 50 279 50 316 0 13 -61 37 -85 33 -5 0
-22 -3 -36 -5z"/>
<path d="M3244 7242 c-11 -7 -54 -267 -54 -324 0 -27 2 -28 49 -28 27 0 53 6
59 13 8 10 52 276 52 316 0 6 -17 15 -37 20 -45 13 -54 13 -69 3z"/>
<path d="M4250 7000 c0 -5 7 -10 15 -10 8 0 15 5 15 10 0 6 -7 10 -15 10 -8 0
-15 -4 -15 -10z"/>
<path d="M4187 6965 c3 -9 -2 -22 -13 -30 -25 -19 -35 -19 -28 0 4 8 1 15 -5
15 -6 0 -11 -4 -11 -9 0 -5 -11 -12 -25 -15 -14 -4 -25 -11 -25 -16 0 -6 -7
-10 -15 -10 -8 0 -15 -4 -15 -10 0 -5 -7 -10 -15 -10 -11 0 -12 -5 -5 -25 8
-21 6 -26 -13 -30 -38 -9 -127 -1 -127 12 0 6 -5 15 -12 19 -7 4 -8 3 -4 -4 9
-16 -7 -15 -22 0 -9 9 -12 9 -12 1 0 -7 5 -15 10 -18 6 -4 8 -10 5 -15 -3 -4
3 -6 13 -3 21 5 52 -21 52 -43 0 -8 4 -13 9 -10 5 3 45 -5 90 -18 45 -12 81
-19 81 -15 0 5 18 13 41 19 22 6 48 19 57 29 39 42 54 65 56 87 0 13 4 24 9
24 4 0 7 14 7 31 0 17 -4 28 -10 24 -5 -3 -10 0 -10 8 0 16 -21 27 -51 27 -12
0 -17 -5 -12 -15z m-127 -105 c0 -5 -2 -10 -4 -10 -3 0 -8 5 -11 10 -3 6 -1
10 4 10 6 0 11 -4 11 -10z"/>
<path d="M4050 6919 c0 -5 5 -7 10 -4 6 3 10 8 10 11 0 2 -4 4 -10 4 -5 0 -10
-5 -10 -11z"/>
<path d="M3980 6906 c0 -2 7 -7 16 -10 8 -3 12 -2 9 4 -6 10 -25 14 -25 6z"/>
<path d="M3063 6880 c-11 -16 -10 -18 2 -14 8 4 15 12 15 20 0 19 -3 18 -17
-6z"/>
<path d="M3099 6878 c-1 -7 -1 -26 -1 -43 0 -24 -1 -25 -5 -7 -3 16 -10 22
-20 18 -8 -3 -17 -6 -19 -6 -2 0 -4 -5 -4 -11 0 -5 4 -8 9 -5 4 3 13 -6 19
-19 15 -32 57 -36 49 -5 -3 11 0 20 6 20 6 0 3 6 -8 14 -12 8 -16 20 -12 35 3
11 1 21 -4 21 -5 0 -9 -6 -10 -12z"/>
<path d="M3158 6833 c6 -2 18 -2 25 0 6 3 1 5 -13 5 -14 0 -19 -2 -12 -5z"/>
<path d="M3218 6833 c7 -3 16 -2 19 1 4 3 -2 6 -13 5 -11 0 -14 -3 -6 -6z"/>
<path d="M3158 6813 c7 -3 16 -2 19 1 4 3 -2 6 -13 5 -11 0 -14 -3 -6 -6z"/>
<path d="M7814 7178 c-42 -62 -77 -117 -77 -123 0 -14 91 -237 101 -247 4 -4
8 30 8 75 1 45 13 154 27 242 14 88 24 161 22 163 -1 2 -38 -48 -81 -110z"/>
<path d="M8259 7253 c-51 -8 -63 -34 -85 -191 -11 -81 -17 -154 -13 -163 17
-33 122 -30 157 5 23 23 66 316 49 333 -14 14 -71 22 -108 16z"/>
<path d="M6739 7243 c-22 -3 -28 -11 -33 -41 -10 -61 -9 -62 39 -62 32 0 51 6
65 20 20 20 27 65 13 73 -15 8 -59 13 -84 10z"/>
<path d="M6515 7052 c-21 -5 -30 -13 -30 -28 0 -11 -6 -28 -14 -37 -9 -11 -10
-17 -2 -17 6 0 11 -7 11 -15 0 -8 4 -15 9 -15 5 0 7 -19 4 -42 -5 -36 -3 -41
8 -31 10 11 18 8 40 -13 31 -30 49 -25 49 15 0 30 16 51 40 51 8 0 33 -20 54
-45 32 -36 46 -45 72 -45 17 0 37 7 44 15 7 8 17 15 22 15 25 0 53 36 50 64
-2 16 1 33 7 39 6 6 11 24 11 39 0 15 6 28 13 29 6 0 1 5 -13 11 -30 12 -332
20 -375 10z"/>
<path d="M7395 7053 c-20 -6 -44 -31 -45 -48 0 -5 4 -4 9 4 7 11 10 9 16 -8 4
-12 2 -28 -4 -35 -8 -10 -7 -17 4 -26 16 -13 21 -65 6 -56 -5 4 -7 -4 -3 -16
3 -12 7 -17 10 -10 2 7 8 10 13 6 5 -3 9 3 9 12 0 16 1 16 15 -2 8 -10 15 -14
15 -8 0 6 11 24 25 40 25 28 26 28 37 9 7 -11 13 -25 14 -32 1 -6 11 -21 22
-33 l20 -22 7 21 c3 12 15 21 26 21 10 0 19 5 19 11 0 8 5 8 15 -1 13 -11 14
-8 9 17 -4 23 -2 32 11 36 9 4 13 12 10 17 -4 6 -1 18 6 26 6 8 9 18 5 21 -4
4 -11 1 -17 -7 -6 -10 -7 -4 -3 19 5 22 3 36 -6 41 -14 9 -214 11 -245 3z"/>
<path d="M6830 6820 c0 -5 5 -10 10 -10 6 0 10 5 10 10 0 6 -4 10 -10 10 -5 0
-10 -4 -10 -10z"/>
<path d="M5615 7240 c-18 -7 -23 -28 -43 -166 -12 -88 -22 -165 -22 -172 0 -9
15 -12 52 -10 45 3 55 7 65 28 16 35 48 299 37 309 -14 13 -67 20 -89 11z"/>
<path d="M5416 6923 c-12 -12 -6 -71 9 -83 8 -7 15 -19 15 -26 0 -16 68 -18
110 -3 23 8 22 8 -8 5 -23 -2 -31 1 -28 10 3 8 -3 12 -15 11 -11 -1 -18 -6
-15 -13 3 -8 -2 -9 -20 0 -20 9 -24 18 -24 53 0 40 -10 60 -24 46z"/>
<path d="M8824 7049 l-31 -9 31 -65 c24 -52 35 -65 54 -65 28 0 42 33 42 101
0 49 0 49 -32 48 -18 0 -47 -5 -64 -10z"/>
<path d="M8970 7048 c0 -22 43 -138 52 -138 4 0 8 -9 8 -21 0 -14 13 -26 45
-40 25 -11 45 -24 45 -30 0 -6 5 -7 10 -4 6 3 13 -1 16 -10 5 -12 10 -13 20
-4 7 6 19 9 26 6 18 -6 58 16 90 50 22 23 27 41 33 105 8 88 6 91 -69 92 l-41
1 1 -43 c1 -53 -17 -51 -32 4 l-11 39 -96 3 c-74 2 -97 0 -97 -10z"/>
<path d="M3925 4936 c-41 -18 -93 -79 -100 -118 -12 -64 31 -117 108 -134 81
-18 197 53 211 129 9 48 -14 101 -53 121 -36 19 -125 20 -166 2z"/>
<path d="M5006 5129 c-5 -16 -76 -422 -76 -434 0 -14 213 3 264 21 104 36 173
147 164 260 -9 108 -74 152 -242 161 -85 5 -106 3 -110 -8z"/>
<path d="M3259 4929 c-19 -12 -41 -29 -47 -40 -12 -18 -8 -19 118 -19 144 0
156 6 99 54 -40 34 -116 36 -170 5z"/>
<path d="M5775 4931 c-16 -10 -39 -28 -49 -40 l-19 -21 137 0 c132 0 136 1
126 19 -32 60 -131 82 -195 42z"/>
<path d="M6995 4950 c-40 -9 -65 -23 -94 -54 l-24 -26 137 0 137 0 -17 30
c-10 16 -25 32 -33 36 -35 14 -78 20 -106 14z"/>
<path d="M7800 4943 c-56 -21 -110 -94 -110 -149 0 -43 30 -82 77 -100 37 -15
50 -15 86 -4 57 17 91 43 111 84 30 64 17 130 -34 159 -27 16 -99 22 -130 10z"/>
<path d="M9116 4948 c-40 -9 -106 -51 -106 -69 0 -5 55 -9 130 -9 73 0 130 4
130 9 0 19 -60 69 -87 73 -16 2 -46 0 -67 -4z"/>
<path d="M8418 4921 c-100 -64 -106 -176 -13 -221 65 -31 138 -21 195 27 58
48 74 107 45 163 -35 67 -147 82 -227 31z"/>
<path d="M6969 3075 c-44 -24 -52 -60 -42 -192 l8 -117 39 -2 c21 -2 42 -8 46
-14 4 -6 17 -12 28 -13 12 -1 22 -4 22 -8 0 -24 124 -38 163 -18 50 26 57 45
57 182 0 71 -5 137 -10 148 -21 37 -63 49 -177 49 -74 -1 -116 -5 -134 -15z
m201 -71 c39 -24 60 -65 60 -118 0 -38 -5 -51 -34 -79 -39 -40 -72 -48 -126
-35 -52 14 -81 47 -87 102 -8 64 1 89 44 119 44 31 100 36 143 11z"/>
<path d="M7055 2945 c-14 -13 -25 -36 -25 -50 0 -33 42 -75 75 -75 14 0 37 11
50 25 34 33 33 77 -1 104 -35 28 -69 26 -99 -4z m80 -50 c0 -27 -3 -30 -30
-30 -21 0 -31 5 -33 18 -5 25 17 49 42 45 16 -2 21 -10 21 -33z"/>
<path d="M10565 6920 c-3 -10 -16 -22 -27 -26 -12 -3 -32 -17 -46 -29 -19 -18
-23 -28 -17 -53 7 -35 42 -62 80 -62 35 0 85 27 85 45 0 8 7 15 16 15 8 0 12
5 9 10 -3 6 -24 10 -46 10 -42 0 -47 6 -24 36 20 26 19 47 -4 61 -17 11 -21
10 -26 -7z"/>
<path d="M9721 6861 c-8 -5 -9 -11 -3 -15 5 -3 12 1 16 9 6 17 6 18 -13 6z"/>
</g>
</svg>
